<?xml version="1.0" encoding="utf-8" ?>
<svg baseProfile="full" height="100%" version="1.1" viewBox="0 0 1520.000000 169.052146" width="100%" xmlns="http://www.w3.org/2000/svg" xmlns:ev="http://www.w3.org/2001/xml-events" xmlns:xlink="http://www.w3.org/1999/xlink"><defs /><g id="0_C" transform="translate(54 17.052145992765773) scale(1 1.0)"><path d="M 100 28 C 100 -13 0 -13 0 50 C 0 113 100 113 100 72 L 75 72 C 75 90 30 90 30 50 C 30 10 75 10 75 28 L 100 28" fill="#E6E600" /></g><g id="1_A" transform="translate(158 17.052145992765773) scale(1 1.0)"><path d="M 0 100 L 33 0 L 66 0 L 100 100 L 75 100 L 66 75 L 33 75 L 25 100 L 0 100" fill="#C8C8C8" /><path d="M 41 55 L 50 25 L 58 55 L 41 55" fill="white" /></g><g id="2_S" transform="translate(262 17.052145992765773) scale(1 1.0)"><path d="M92 26 A43 20 0 1 0 43 46 A42 23 0 1 1 9 68" fill="white" stroke="#FA9600" stroke-width="18" /></g><g id="3_S" transform="translate(366 17.052145992765773) scale(1 1.0)"><path d="M92 26 A43 20 0 1 0 43 46 A42 23 0 1 1 9 68" fill="white" stroke="#FA9600" stroke-width="18" /></g><g id="4_P" transform="translate(470 17.052145992765773) scale(1 1.0)"><path d="M 0 0 L 80 0 C 105 0 105 50 80 50 L 20 50 L 20 100 L 0 100 L 0 0" fill="#DC9682" /><path d="M 20 15 L 70 15 C 80 15 80 35 70 35 L 20 35 L 20 15" fill="white" /></g><g id="5_-" transform="translate(574 95.24171679421262) scale(1 0.21810429198553155)"><path d="M 12.5 40 H 87.5 V 60 H 12.5 V 40" fill="black" /></g><g id="5_V" transform="translate(574 37.08057226473754) scale(1 0.5816114452947508)"><path d="M 0 0 L 20 0 L 50 80 L 80 0 L 100 0 L 60 100 L 40 100 L 0 0" fill="#0F820F" /></g><g id="6_R" transform="translate(678 17.052145992765773) scale(1 1.0)"><path d="M 0 0 L 80 0 C 105 0 105 50 80 50 C 100 50 100 70 100 70 L 100 100 L 80 100 L 80 80 C 80 80 80 60 50 60 L 20 60 L 20 100 L 0 100 L 0 0" fill="#145AFF" /><path d="M 20 15 L 70 15 C 80 15 80 35 70 35 L 20 35 L 20 15" fill="white" /></g><g id="7_A" transform="translate(782 95.24171679421262) scale(1 0.21810429198553155)"><path d="M 0 100 L 33 0 L 66 0 L 100 100 L 75 100 L 66 75 L 33 75 L 25 100 L 0 100" fill="#C8C8C8" /><path d="M 41 55 L 50 25 L 58 55 L 41 55" fill="white" /></g><g id="7_L" transform="translate(782 73.43128759565947) scale(1 0.21810429198553155)"><path d="M 0 0 L 0 100 L 100 100 L 100 80 L 20 80 L 20 0 L 0 0" fill="#0F820F" /></g><g id="7_V" transform="translate(782 51.6208583971063) scale(1 0.21810429198553155)"><path d="M 0 0 L 20 0 L 50 80 L 80 0 L 100 0 L 60 100 L 40 100 L 0 0" fill="#0F820F" /></g><g id="8_G" transform="translate(886 17.052145992765773) scale(1 1.0)"><path d="M 100 28 C 100 -13 0 -13 0 50 C 0 113 100 113 100 72 L 100 48 L 55 48 L 55 72 L 75 72 C 75 90 30 90 30 50 C 30 10 75 5 75 28 L 100 28" fill="#EBEBEB" /></g><g id="9_D" transform="translate(990 17.052145992765773) scale(1 1.0)"><path d="M 0 0 L 60 0 C 110 0 110 100 60 100 L 0 100 L 0 0" fill="#E60A0A" /><path d="M 20 15 L 40 15 C 85 15 85 85 40 85 L 20 85 L 20 15" fill="white" /></g><g id="10_T" transform="translate(1094 17.052145992765773) scale(1 1.0)"><path d="M 0 0 L 0 20 L 35 20 L 35 100 L 65 100 L 65 20 L 100 20 L 100 0 L 0 0" fill="#FA9600" /></g><g id="11_Q" transform="translate(1198 17.052145992765773) scale(1 1.0)"><circle cx="50" cy="50" fill="#00DCDC" r="50" /><circle cx="50" cy="50" fill="white" r="32" /><path d="M 85 100 L 55 70 L 70 55 L 100 85 L 85 100" fill="#00DCDC" /></g><g id="12_Y" transform="translate(1302 17.052145992765773) scale(1 1.0)"><path d="M 0 0 L 20 0 L 50 45 L 80 0 L 100 0 L 60 60 L 60 100 L 40 100 L 40 60 L 0 0" fill="#3232AA" /></g><g id="13_F" transform="translate(1406 17.052145992765773) scale(1 1.0)"><path d="M 0 0 L 100 0 L 100 20 L 20 20 L 20 40 L 80 40 L 80 60 L 20 60 L 20 100 L 0 100 L 0 0" fill="#3232AA" /></g><g id="axes" stroke="#000000" stroke-width="1.5"><path d="M 50 119.05214599276577 h 1464" /><path d="M 50 119.05214599276577 v -109.05214599276577" /><path d="M 50 119.05214599276577 h -5.0" /><text dominant-baseline="middle" fill="#000000" font-family="sans-serif" font-size="12pt" font-weight="normal" text-anchor="end" x="41.0" y="119.05214599276577">0.0</text><path d="M 50 97.24171679421262 h -5.0" /><text dominant-baseline="middle" fill="#000000" font-family="sans-serif" font-size="12pt" font-weight="normal" text-anchor="end" x="41.0" y="97.24171679421262">1.0</text><path d="M 50 75.43128759565946 h -5.0" /><text dominant-baseline="middle" fill="#000000" font-family="sans-serif" font-size="12pt" font-weight="normal" text-anchor="end" x="41.0" y="75.43128759565946">2.0</text><path d="M 50 53.6208583971063 h -5.0" /><text dominant-baseline="middle" fill="#000000" font-family="sans-serif" font-size="12pt" font-weight="normal" text-anchor="end" x="41.0" y="53.6208583971063">3.0</text><path d="M 50 31.81042919855315 h -5.0" /><text dominant-baseline="middle" fill="#000000" font-family="sans-serif" font-size="12pt" font-weight="normal" text-anchor="end" x="41.0" y="31.81042919855315">4.0</text><path d="M 50 10.0 h -5.0" /><text dominant-baseline="middle" fill="#000000" font-family="sans-serif" font-size="12pt" font-weight="normal" text-anchor="end" x="41.0" y="10.0">5.0</text><text dominant-baseline="hanging" fill="#000000" font-family="sans-serif" font-size="12pt" font-weight="normal" text-anchor="middle" x="104.0" y="129.05214599276576">C</text><text dominant-baseline="hanging" fill="#000000" font-family="sans-serif" font-size="12pt" font-weight="normal" text-anchor="middle" x="208.0" y="129.05214599276576">A</text><text dominant-baseline="hanging" fill="#000000" font-family="sans-serif" font-size="12pt" font-weight="normal" text-anchor="middle" x="312.0" y="129.05214599276576">S</text><text dominant-baseline="hanging" fill="#000000" font-family="sans-serif" font-size="12pt" font-weight="normal" text-anchor="middle" x="416.0" y="129.05214599276576">S</text><text dominant-baseline="hanging" fill="#000000" font-family="sans-serif" font-size="12pt" font-weight="normal" text-anchor="middle" x="520.0" y="129.05214599276576">P</text><text dominant-baseline="hanging" fill="#000000" font-family="sans-serif" font-size="12pt" font-weight="normal" text-anchor="middle" x="624.0" y="129.05214599276576">V</text><text dominant-baseline="hanging" fill="#000000" font-family="sans-serif" font-size="12pt" font-weight="normal" text-anchor="middle" x="728.0" y="129.05214599276576">R</text><text dominant-baseline="hanging" fill="#000000" font-family="sans-serif" font-size="12pt" font-weight="normal" text-anchor="middle" x="832.0" y="129.05214599276576">A</text><text dominant-baseline="hanging" fill="#000000" font-family="sans-serif" font-size="12pt" font-weight="normal" text-anchor="middle" x="936.0" y="129.05214599276576">G</text><text dominant-baseline="hanging" fill="#000000" font-family="sans-serif" font-size="12pt" font-weight="normal" text-anchor="middle" x="1040.0" y="129.05214599276576">D</text><text dominant-baseline="hanging" fill="#000000" font-family="sans-serif" font-size="12pt" font-weight="normal" text-anchor="middle" x="1144.0" y="129.05214599276576">T</text><text dominant-baseline="hanging" fill="#000000" font-family="sans-serif" font-size="12pt" font-weight="normal" text-anchor="middle" x="1248.0" y="129.05214599276576">Q</text><text dominant-baseline="hanging" fill="#000000" font-family="sans-serif" font-size="12pt" font-weight="normal" text-anchor="middle" x="1352.0" y="129.05214599276576">Y</text><text dominant-baseline="hanging" fill="#000000" font-family="sans-serif" font-size="12pt" font-weight="normal" text-anchor="middle" x="1456.0" y="129.05214599276576">F</text></g></svg>